<svg width="24" height="24" viewBox="0 0 24 24" fill="none" xmlns="http://www.w3.org/2000/svg">
<path d="M11.7493 19.4893C11.5523 19.4897 11.3626 19.4146 11.2193 19.2793L4.21934 12.2793C3.92689 11.9865 3.92689 11.5122 4.21934 11.2193L11.2193 4.21934C11.5122 3.92689 11.9865 3.92689 12.2793 4.21934C12.4223 4.35863 12.5029 4.54975 12.5029 4.74934C12.5029 4.94893 12.4223 5.14005 12.2793 5.27934L5.81934 11.7593L12.2693 18.2093C12.4123 18.3486 12.4929 18.5398 12.4929 18.7393C12.4929 18.9389 12.4123 19.1301 12.2693 19.2693C12.1339 19.4114 11.9456 19.491 11.7493 19.4893Z" fill="#282B2B"/>
<path d="M19.7894 12.5093H4.78937C4.37515 12.5093 4.03937 12.1736 4.03937 11.7593C4.03937 11.3451 4.37515 11.0093 4.78937 11.0093H19.7894C20.2036 11.0093 20.5394 11.3451 20.5394 11.7593C20.5394 12.1736 20.2036 12.5093 19.7894 12.5093Z" fill="#282B2B"/>
<path d="M11.7493 19.4893C11.5523 19.4897 11.3626 19.4146 11.2193 19.2793L4.21934 12.2793C3.92689 11.9865 3.92689 11.5122 4.21934 11.2193L11.2193 4.21934C11.5122 3.92689 11.9865 3.92689 12.2793 4.21934C12.4223 4.35863 12.5029 4.54975 12.5029 4.74934C12.5029 4.94893 12.4223 5.14005 12.2793 5.27934L5.81934 11.7593L12.2693 18.2093C12.4123 18.3486 12.4929 18.5398 12.4929 18.7393C12.4929 18.9389 12.4123 19.1301 12.2693 19.2693C12.1339 19.4114 11.9456 19.491 11.7493 19.4893Z" fill="#282B2B"/>
<path d="M19.7894 12.5093H4.78937C4.37515 12.5093 4.03937 12.1736 4.03937 11.7593C4.03937 11.3451 4.37515 11.0093 4.78937 11.0093H19.7894C20.2036 11.0093 20.5394 11.3451 20.5394 11.7593C20.5394 12.1736 20.2036 12.5093 19.7894 12.5093Z" fill="#282B2B"/>
</svg>
